<?xml version="1.0" encoding="utf-8"?>
<!-- Svg Vector Icons : http://www.onlinewebfonts.com/icon -->
<!DOCTYPE svg PUBLIC "-//W3C//DTD SVG 1.1//EN" "http://www.w3.org/Graphics/SVG/1.1/DTD/svg11.dtd">
<svg version="1.1" xmlns="http://www.w3.org/2000/svg" xmlns:xlink="http://www.w3.org/1999/xlink" x="0px" y="0px" viewBox="0 0 256 256" enable-background="new 0 0 256 256" xml:space="preserve">
<metadata> Svg Vector Icons : http://www.onlinewebfonts.com/icon </metadata>
<g><g><g><path fill="#000000" d="M113.6,10.5c-35.2,2.4-63.9,12.8-72.8,26.3c-3.4,5.1-4.2,8.6-3.8,17.4c0.3,6.2,0.7,8.4,2.2,11.3c6.2,12.5,30.1,23.2,61.2,27.5c13.6,1.8,41.8,1.9,55.1,0c31.2-4.3,54.9-15,61.3-27.5c1.5-3,1.9-5.2,2.1-11.3c0.4-8.7-0.4-12.4-3.7-17.3C203.7,19.3,157.8,7.5,113.6,10.5z"/><path fill="#000000" d="M37,92.5c0.2,19.4,0.3,20.3,2,23.5c6.5,12.1,26.3,21.6,56.3,26.9c8.4,1.4,12.2,1.7,32.6,1.7c20.4,0,24.3-0.2,32.7-1.7c30-5.2,49.8-14.7,56.3-26.9c1.7-3.2,1.7-4.1,2-23.1l0.2-19.7l-1.7,3.8c-6.6,13.9-34.2,25.1-69.9,28.5c-12.2,1.1-38.8,0.5-49.8-1.2c-30.5-4.7-52.9-15.3-59-28.1l-1.7-3.8L37,92.5z M208.6,102.9c2.8,2.5,1,9.3-2.5,9.3c-1.8,0-3.7-2.8-3.7-5.3c0-2.4,2-5.3,3.6-5.3C206.7,101.6,207.9,102.1,208.6,102.9z"/><path fill="#000000" d="M37.1,143.3l0.2,20.1l2,3.6c7.6,12.8,30.7,22.9,62.9,27.3c9.6,1.4,42.1,1.4,51.6,0.1c27.6-3.9,47.3-11.2,57.8-21.4c7.2-7.1,7.5-8.4,7.4-31.4c0-16.8-0.2-18.1-1.1-15.3c-7.1,19.6-56.9,33.9-104.7,30.1c-39.4-3.1-67-14.2-74.7-30l-1.6-3.1L37.1,143.3z M209.2,153.9c1.4,2.7,0.9,6.7-0.9,8c-2.2,1.5-2.6,1.5-4.4-0.3s-2-5.8-0.2-7.7C205.3,152,208.3,152.1,209.2,153.9z"/><path fill="#000000" d="M37,193.4l0.2,20.1l2.4,4.2c7.4,13.1,33,23.7,65.6,27.4c10.2,1.1,35.3,1.1,45.6,0c30.3-3.4,56.1-13.5,64-25c4-5.7,4.3-7.4,4.3-27.5l0.1-18.6l-1.8,3.9c-5.8,12.5-26.7,22.3-58.2,27.3c-12.2,1.9-41.7,2.4-55,0.8c-33.9-3.9-58.9-15-65.5-28.9l-1.7-3.8L37,193.4z M208.6,203.8c2.8,2.5,1.2,9.3-2.2,9.3c-3.7,0-5.4-6.2-2.5-9.1C205.8,202.2,206.8,202.2,208.6,203.8z"/></g></g></g>
</svg>